<!-- Generated by IcoMoon.io -->
<svg version="1.1" xmlns="http://www.w3.org/2000/svg" width="32" height="32" viewBox="0 0 32 32">
<title>instagram</title>
<path d="M9.333 4c-2.946 0-5.333 2.388-5.333 5.333v13.333c0 2.945 2.388 5.333 5.333 5.333h13.333c2.945 0 5.333-2.388 5.333-5.333v-13.333c0-2.946-2.388-5.333-5.333-5.333h-13.333zM1.333 9.333c0-4.418 3.582-8 8-8h13.333c4.418 0 8 3.582 8 8v13.333c0 4.418-3.582 8-8 8h-13.333c-4.418 0-8-3.582-8-8v-13.333z"></path>
<path d="M16.644 11.986c-0.832-0.123-1.682 0.019-2.429 0.406s-1.352 1.001-1.731 1.752c-0.378 0.752-0.51 1.603-0.376 2.434s0.526 1.598 1.121 2.193c0.595 0.595 1.362 0.987 2.193 1.121s1.682 0.002 2.434-0.376c0.752-0.378 1.365-0.984 1.752-1.731s0.53-1.597 0.406-2.429c-0.126-0.849-0.521-1.635-1.128-2.242s-1.393-1.002-2.242-1.128zM12.987 10.025c1.245-0.646 2.661-0.883 4.048-0.677 1.415 0.21 2.725 0.869 3.736 1.881s1.671 2.321 1.881 3.736c0.206 1.387-0.031 2.804-0.677 4.048s-1.668 2.254-2.92 2.885c-1.253 0.63-2.672 0.85-4.056 0.627s-2.663-0.876-3.655-1.868c-0.992-0.991-1.645-2.27-1.868-3.655s-0.003-2.804 0.627-4.056c0.63-1.253 1.64-2.274 2.884-2.92z"></path>
<path d="M22 8.667c0-0.736 0.597-1.333 1.333-1.333h0.013c0.736 0 1.333 0.597 1.333 1.333s-0.597 1.333-1.333 1.333h-0.013c-0.736 0-1.333-0.597-1.333-1.333z"></path>
</svg>
