<svg aria-hidden="true" style="position: absolute; width: 0; height: 0; overflow: hidden;" version="1.1" xmlns="http://www.w3.org/2000/svg" xmlns:xlink="http://www.w3.org/1999/xlink">
<defs>
<symbol id="icon-close" viewBox="0 0 32 32">
<path d="M24.943 7.057c0.521 0.521 0.521 1.365 0 1.886l-16 16c-0.521 0.521-1.365 0.521-1.886 0s-0.521-1.365 0-1.886l16-16c0.521-0.521 1.365-0.521 1.886 0z"></path>
<path d="M7.057 7.057c0.521-0.521 1.365-0.521 1.886 0l16 16c0.521 0.521 0.521 1.365 0 1.886s-1.365 0.521-1.886 0l-16-16c-0.521-0.521-0.521-1.365 0-1.886z"></path>
</symbol>
<symbol id="icon-facebook" viewBox="0 0 32 32">
<path d="M14.343 3.676c1.5-1.5 3.535-2.343 5.657-2.343h4c0.736 0 1.333 0.597 1.333 1.333v5.333c0 0.736-0.597 1.333-1.333 1.333h-4v2.667h4c0.411 0 0.798 0.189 1.051 0.513s0.342 0.746 0.243 1.144l-1.333 5.333c-0.148 0.594-0.682 1.010-1.293 1.010h-2.667v9.333c0 0.736-0.597 1.333-1.333 1.333h-5.333c-0.736 0-1.333-0.597-1.333-1.333v-9.333h-2.667c-0.736 0-1.333-0.597-1.333-1.333v-5.333c0-0.736 0.597-1.333 1.333-1.333h2.667v-2.667c0-2.122 0.843-4.157 2.343-5.657zM20 4c-1.415 0-2.771 0.562-3.771 1.562s-1.562 2.357-1.562 3.771v4c0 0.736-0.597 1.333-1.333 1.333h-2.667v2.667h2.667c0.736 0 1.333 0.597 1.333 1.333v9.333h2.667v-9.333c0-0.736 0.597-1.333 1.333-1.333h2.959l0.667-2.667h-3.626c-0.736 0-1.333-0.597-1.333-1.333v-4c0-0.707 0.281-1.386 0.781-1.886s1.178-0.781 1.886-0.781h2.667v-2.667h-2.667z"></path>
</symbol>
<symbol id="icon-instagram" viewBox="0 0 32 32">
<path d="M9.333 4c-2.946 0-5.333 2.388-5.333 5.333v13.333c0 2.945 2.388 5.333 5.333 5.333h13.333c2.945 0 5.333-2.388 5.333-5.333v-13.333c0-2.946-2.388-5.333-5.333-5.333h-13.333zM1.333 9.333c0-4.418 3.582-8 8-8h13.333c4.418 0 8 3.582 8 8v13.333c0 4.418-3.582 8-8 8h-13.333c-4.418 0-8-3.582-8-8v-13.333z"></path>
<path d="M16.644 11.986c-0.832-0.123-1.682 0.019-2.429 0.406s-1.352 1.001-1.731 1.752c-0.378 0.752-0.51 1.603-0.376 2.434s0.526 1.598 1.121 2.193c0.595 0.595 1.362 0.987 2.193 1.121s1.682 0.002 2.434-0.376c0.752-0.378 1.365-0.984 1.752-1.731s0.53-1.597 0.406-2.429c-0.126-0.849-0.521-1.635-1.128-2.242s-1.393-1.002-2.242-1.128zM12.987 10.025c1.245-0.646 2.661-0.883 4.048-0.677 1.415 0.21 2.725 0.869 3.736 1.881s1.671 2.321 1.881 3.736c0.206 1.387-0.031 2.804-0.677 4.048s-1.668 2.254-2.92 2.885c-1.253 0.63-2.672 0.85-4.056 0.627s-2.663-0.876-3.655-1.868c-0.992-0.991-1.645-2.27-1.868-3.655s-0.003-2.804 0.627-4.056c0.63-1.253 1.64-2.274 2.884-2.92z"></path>
<path d="M22 8.667c0-0.736 0.597-1.333 1.333-1.333h0.013c0.736 0 1.333 0.597 1.333 1.333s-0.597 1.333-1.333 1.333h-0.013c-0.736 0-1.333-0.597-1.333-1.333z"></path>
</symbol>
<symbol id="icon-mail" viewBox="0 0 32 32">
<path d="M5.333 6.667c-0.73 0-1.333 0.603-1.333 1.333v16c0 0.73 0.603 1.333 1.333 1.333h21.333c0.73 0 1.333-0.603 1.333-1.333v-16c0-0.73-0.603-1.333-1.333-1.333h-21.333zM1.333 8c0-2.203 1.797-4 4-4h21.333c2.203 0 4 1.797 4 4v16c0 2.203-1.797 4-4 4h-21.333c-2.203 0-4-1.797-4-4v-16z"></path>
<path d="M1.574 7.235c0.422-0.603 1.254-0.75 1.857-0.328l12.569 8.798 12.569-8.798c0.603-0.422 1.435-0.276 1.857 0.328s0.276 1.435-0.328 1.857l-13.333 9.333c-0.459 0.321-1.070 0.321-1.529 0l-13.333-9.333c-0.603-0.422-0.75-1.254-0.328-1.857z"></path>
</symbol>
<symbol id="icon-map-pin" viewBox="0 0 32 32">
<path d="M16 2.667c-2.829 0-5.542 1.124-7.542 3.124s-3.124 4.713-3.124 7.542c0 4.131 2.688 8.139 5.635 11.25 1.446 1.527 2.897 2.776 3.988 3.645 0.406 0.323 0.76 0.593 1.044 0.802 0.284-0.21 0.639-0.479 1.044-0.802 1.091-0.868 2.541-2.118 3.988-3.645 2.947-3.111 5.635-7.119 5.635-11.25 0-2.829-1.124-5.542-3.124-7.542s-4.714-3.124-7.543-3.124zM16 30.667c-0.74 1.109-0.74 1.109-0.74 1.109l-0.004-0.003-0.009-0.006-0.031-0.021c-0.026-0.018-0.063-0.043-0.11-0.076-0.095-0.066-0.231-0.161-0.402-0.285-0.343-0.248-0.829-0.609-1.409-1.072-1.159-0.923-2.709-2.257-4.262-3.897-3.053-3.223-6.365-7.881-6.365-13.084 0-3.536 1.405-6.928 3.905-9.428s5.892-3.905 9.428-3.905c3.536 0 6.928 1.405 9.428 3.905s3.905 5.892 3.905 9.428c0 5.203-3.312 9.861-6.365 13.084-1.554 1.64-3.103 2.974-4.262 3.897-0.581 0.462-1.066 0.824-1.409 1.072-0.172 0.124-0.308 0.219-0.402 0.285-0.047 0.033-0.084 0.058-0.11 0.076l-0.031 0.021-0.009 0.006-0.003 0.002c-0 0-0.002 0.001-0.741-1.108zM16 30.667l0.74 1.109c-0.448 0.299-1.032 0.298-1.48-0.001l0.74-1.109z"></path>
<path d="M22.667 13.333c0-3.682-2.985-6.667-6.667-6.667s-6.667 2.985-6.667 6.667c0 3.682 2.985 6.667 6.667 6.667s6.667-2.985 6.667-6.667zM20 13.333c0 2.209-1.791 4-4 4s-4-1.791-4-4c0-2.209 1.791-4 4-4s4 1.791 4 4z"></path>
</symbol>
<symbol id="icon-trim" viewBox="0 0 32 32">
<path d="M16 17.996c0.607 0 1.154-0.365 1.386-0.926s0.104-1.205-0.325-1.635c-0.594-0.566-1.527-0.566-2.121 0-0.428 0.429-0.557 1.074-0.325 1.634s0.779 0.926 1.385 0.926zM15.646 16.142c0.195-0.195 0.512-0.195 0.707 0s0.195 0.512 0 0.707c-0.198 0.189-0.509 0.189-0.707 0-0.195-0.195-0.195-0.512 0-0.707z"></path>
<path d="M22 10.996c0.133 0 0.26-0.053 0.354-0.146l4.5-4.5c0.189-0.196 0.187-0.508-0.006-0.701s-0.505-0.196-0.701-0.006l-4.5 4.5c-0.143 0.143-0.186 0.358-0.108 0.545s0.26 0.309 0.462 0.309z"></path>
<path d="M19.5 13.496c0.133 0 0.26-0.053 0.354-0.147l1-1c0.189-0.196 0.187-0.508-0.006-0.701s-0.505-0.196-0.701-0.006l-1 1c-0.143 0.143-0.186 0.358-0.108 0.545s0.26 0.309 0.462 0.309z"></path>
<path d="M6.5 24.996c-1.104 0-2 0.895-2 2s0.896 2 2 2 2-0.895 2-2c0-1.105-0.896-2-2-2zM6.5 27.996c-0.552 0-1-0.447-1-1s0.448-1 1-1 1 0.448 1 1c0 0.553-0.448 1-1 1z"></path>
<path d="M25.519 28.996c1.104 0 2-0.895 2-2s-0.896-2-2-2c-1.105 0-2 0.895-2 2s0.895 2 2 2zM25.519 25.996c0.552 0 1 0.448 1 1s-0.448 1-1 1-1-0.447-1-1c0-0.552 0.448-1 1-1z"></path>
<path d="M30.5 18.496c-1.104 0-2-0.895-2-2 0-0.276-0.224-0.5-0.5-0.5s-0.5 0.224-0.5 0.5c0 1.105-0.896 2-2 2-0.276 0-0.5 0.224-0.5 0.5s0.224 0.5 0.5 0.5c1.104 0 2 0.895 2 2 0 0.276 0.224 0.5 0.5 0.5s0.5-0.224 0.5-0.5c0-1.105 0.896-2 2-2 0.276 0 0.5-0.224 0.5-0.5s-0.224-0.5-0.5-0.5zM28 19.841c-0.223-0.335-0.51-0.623-0.845-0.845 0.335-0.222 0.622-0.51 0.845-0.845 0.223 0.335 0.51 0.622 0.845 0.845-0.335 0.223-0.622 0.51-0.845 0.845z"></path>
<path d="M1.5 13.496c1.104 0 2 0.895 2 2 0 0.276 0.224 0.5 0.5 0.5s0.5-0.224 0.5-0.5c0-1.105 0.896-2 2-2 0.276 0 0.5-0.224 0.5-0.5s-0.224-0.5-0.5-0.5c-1.104 0-2-0.895-2-2 0-0.276-0.224-0.5-0.5-0.5s-0.5 0.224-0.5 0.5c0 1.105-0.896 2-2 2-0.276 0-0.5 0.224-0.5 0.5s0.224 0.5 0.5 0.5zM4 12.151c0.223 0.335 0.51 0.622 0.845 0.845-0.335 0.223-0.622 0.51-0.845 0.845-0.223-0.335-0.51-0.623-0.845-0.845 0.335-0.222 0.622-0.51 0.845-0.845z"></path>
<path d="M13.1 18.19l-5.1 5.099c-0.476-0.195-0.986-0.294-1.5-0.293-2.209 0-4 1.791-4 4s1.791 4 4 4 4-1.791 4-4c-0-0.239-0.023-0.478-0.067-0.713l5.576-5.45 5.576 5.45c-0.044 0.235-0.066 0.474-0.067 0.713 0 2.209 1.791 4 4 4s4-1.791 4-4c0-2.209-1.791-4-4-4-0.514-0.001-1.024 0.099-1.5 0.293l-5.094-5.093 9.466-10.888c2.203-2.754 0.047-6.057 0.026-6.090-0.081-0.122-0.212-0.202-0.357-0.219s-0.292 0.030-0.4 0.13l-11.645 10.817-11.646-10.817c-0.108-0.099-0.254-0.147-0.4-0.13s-0.276 0.097-0.357 0.219c-0.022 0.033-2.177 3.336 0.039 6.105l9.451 10.866zM9.535 25.762c-0.128 0.125-0.179 0.309-0.135 0.482 0.321 1.242-0.183 2.551-1.255 3.257s-2.473 0.651-3.488-0.135c-1.014-0.786-1.416-2.13-1-3.344s1.558-2.029 2.841-2.027c0.479-0 0.952 0.115 1.377 0.337 0.194 0.1 0.429 0.063 0.584-0.090l5.294-5.294c0.296 0.279 0.638 0.505 1.011 0.667l0.528 0.516-5.759 5.63zM24.142 24.333c0.425-0.222 0.897-0.338 1.376-0.337 1.293-0.008 2.448 0.809 2.871 2.031s0.020 2.578-1.002 3.371c-1.022 0.793-2.435 0.847-3.514 0.133s-1.584-2.035-1.254-3.286c0.045-0.173-0.006-0.357-0.134-0.482l-6.064-5.928c0.689-0.106 1.328-0.42 1.833-0.9l5.305 5.305c0.154 0.155 0.39 0.192 0.584 0.092zM27.869 2.3c0.421 0.896 1.030 2.772-0.246 4.368l-9.977 11.474c-0.906 0.913-2.38 0.919-3.293 0.013s-0.919-2.38-0.013-3.293l13.528-12.563zM4.156 2.296l11.123 10.331-1.633 1.516c-0.551 0.534-0.904 1.239-1 2l-8.229-9.459c-1.299-1.623-0.688-3.493-0.262-4.387z"></path>
</symbol>
<symbol id="icon-whatsapp" viewBox="0 0 32 32">
<path d="M22.133 18.667c-0.267-0.133-2-0.933-2.267-1.067s-0.533-0.133-0.8 0.133c-0.267 0.267-0.8 1.067-1.067 1.333-0.133 0.267-0.4 0.267-0.667 0.133-0.933-0.4-1.867-0.933-2.667-1.6-0.667-0.667-1.333-1.467-1.867-2.267-0.133-0.267 0-0.533 0.133-0.667s0.267-0.4 0.533-0.533c0.133-0.133 0.267-0.4 0.267-0.533 0.133-0.133 0.133-0.4 0-0.533s-0.8-1.733-1.067-2.4c-0.133-0.933-0.4-0.933-0.667-0.933-0.133 0-0.4 0-0.667 0s-0.667 0.267-0.8 0.4c-0.8 0.8-1.2 1.733-1.2 2.8 0.133 1.2 0.533 2.4 1.333 3.467 1.467 2.133 3.333 3.867 5.6 4.933 0.667 0.267 1.2 0.533 1.867 0.667 0.667 0.267 1.333 0.267 2.133 0.133 0.933-0.133 1.733-0.8 2.267-1.6 0.267-0.533 0.267-1.067 0.133-1.6 0 0-0.267-0.133-0.533-0.267zM25.467 6.533c-5.2-5.2-13.6-5.2-18.8 0-4.267 4.267-5.067 10.8-2.133 16l-1.867 6.8 7.067-1.867c2 1.067 4.133 1.6 6.267 1.6 7.333 0 13.2-5.867 13.2-13.2 0.133-3.467-1.333-6.8-3.733-9.333zM21.867 25.2c-1.733 1.067-3.733 1.733-5.867 1.733-2 0-3.867-0.533-5.6-1.467l-0.4-0.267-4.133 1.067 1.067-4-0.267-0.4c-3.2-5.333-1.6-12 3.6-15.333s11.867-1.6 15.067 3.467c3.2 5.2 1.733 12-3.467 15.2z"></path>
</symbol>
<symbol id="icon-woman-hair" viewBox="0 0 32 32">
<path d="M7.5 9.5c1.104 0 2-0.895 2-2s-0.895-2-2-2c-1.105 0-2 0.895-2 2s0.895 2 2 2zM7.5 6.5c0.552 0 1 0.448 1 1s-0.448 1-1 1c-0.552 0-1-0.448-1-1s0.448-1 1-1z"></path>
<path d="M7 14.5c0-1.104-0.896-2-2-2s-2 0.895-2 2 0.895 2 2 2c1.104 0 2-0.895 2-2zM4 14.5c0-0.552 0.448-1 1-1s1 0.448 1 1c0 0.552-0.448 1-1 1s-1-0.448-1-1z"></path>
<path d="M6 19.5c-1.105 0-2 0.896-2 2s0.895 2 2 2c1.104 0 2-0.895 2-2s-0.896-2-2-2zM6 22.5c-0.552 0-1-0.448-1-1s0.448-1 1-1c0.552 0 1 0.448 1 1s-0.448 1-1 1z"></path>
<path d="M24.5 9.5c1.104 0 2-0.895 2-2s-0.895-2-2-2c-1.105 0-2 0.895-2 2s0.895 2 2 2zM24.5 6.5c0.552 0 1 0.448 1 1s-0.448 1-1 1c-0.552 0-1-0.448-1-1s0.448-1 1-1z"></path>
<path d="M25 14.5c0 1.104 0.895 2 2 2s2-0.895 2-2-0.895-2-2-2c-1.105 0-2 0.895-2 2zM28 14.5c0 0.552-0.448 1-1 1s-1-0.448-1-1c0-0.552 0.448-1 1-1s1 0.448 1 1z"></path>
<path d="M28.341 18.264c1.811-0.643 2.907-2.483 2.611-4.381s-1.902-3.316-3.823-3.376c1.637-1.431 1.829-3.907 0.434-5.573s-3.867-1.912-5.563-0.552v-2.882c0-0.276-0.224-0.5-0.5-0.5h-11c-0.276 0-0.5 0.224-0.5 0.5v2.889c-1.693-1.364-4.167-1.122-5.564 0.544s-1.204 4.144 0.434 5.574c-1.92 0.060-3.526 1.478-3.822 3.376s0.8 3.738 2.611 4.381c-1.46 1.055-2.034 2.958-1.401 4.644s2.317 2.741 4.111 2.574c1.794-0.167 3.255-1.513 3.566-3.288 0.567 0.79 1.265 1.478 2.065 2.032v2.774h-4.5c-1.38 0.002-2.499 1.12-2.5 2.5v1c0 0.276 0.224 0.5 0.5 0.5h21c0.276 0 0.5-0.224 0.5-0.5v-1c-0.002-1.38-1.12-2.498-2.5-2.5h-4.5v-2.774c0.799-0.554 1.497-1.242 2.064-2.032 0.308 1.779 1.77 3.131 3.568 3.299s3.485-0.888 4.118-2.579c0.634-1.691 0.056-3.596-1.41-4.65zM30 14.5c0 1.657-1.343 3-3 3s-3-1.343-3-3c0-1.657 1.343-3 3-3 1.656 0.002 2.998 1.344 3 3zM23.471 12.621c-0.16-0.504-0.358-0.995-0.593-1.468 0.471 0.209 0.978 0.325 1.492 0.34-0.365 0.319-0.67 0.701-0.899 1.128zM24.5 4.5c1.593-0.002 2.91 1.242 2.999 2.833s-1.082 2.974-2.666 3.149c-1.584 0.175-3.028-0.919-3.289-2.491 0.257-0.020 0.454-0.234 0.456-0.491v-1.65c0.551-0.845 1.492-1.353 2.5-1.35zM21 7h-2.5v-5h2.5v5zM17.5 2v5h-3v-5h3zM8.529 12.621c-0.229-0.427-0.534-0.809-0.9-1.128 0.515-0.016 1.022-0.131 1.492-0.34-0.234 0.474-0.432 0.964-0.593 1.468zM11 2h2.5v5h-2.5v-5zM4.5 7.5c-0.002-1.325 0.866-2.494 2.135-2.875s2.637 0.117 3.365 1.225v1.65c0.001 0.257 0.199 0.471 0.456 0.491-0.265 1.531-1.654 2.606-3.202 2.478s-2.743-1.416-2.753-2.969zM2 14.5c0-1.657 1.343-3 3-3s3 1.343 3 3c0 1.657-1.343 3-3 3-1.656-0.002-2.999-1.344-3-3zM6 24.5c-1.657 0-3-1.343-3-3s1.343-3 3-3c1.657 0 3 1.343 3 3-0.002 1.656-1.344 2.998-3 3zM7.341 17.737c0.263-0.191 0.503-0.412 0.714-0.66 0.036 0.371 0.089 0.736 0.16 1.096-0.272-0.181-0.566-0.327-0.874-0.436zM19.232 23.537c-0.145 0.092-0.232 0.251-0.232 0.422v3.541c0 0.276 0.224 0.5 0.5 0.5h5c0.828 0 1.5 0.672 1.5 1.5v0.5h-20v-0.5c0-0.828 0.671-1.5 1.5-1.5h5c0.276 0 0.5-0.224 0.5-0.5v-3.543c0-0.171-0.088-0.331-0.232-0.422-2.324-1.475-3.768-4.362-3.768-7.534-0.050-2.563 0.97-5.031 2.814-6.811-0.17 1.097-0.275 2.203-0.314 3.311 0 0.276 0.224 0.5 0.5 0.5s0.5-0.224 0.5-0.5c0.068-1.389 0.218-2.773 0.45-4.144 0.223-0.133 0.453-0.252 0.69-0.356h0.276c-0.236 1.49-0.375 2.993-0.416 4.5 0 0.276 0.224 0.5 0.5 0.5s0.5-0.224 0.5-0.5c0.046-1.507 0.189-3.011 0.428-4.5h0.572v4.5c0 0.276 0.224 0.5 0.5 0.5s0.5-0.224 0.5-0.5v-4.5h0.572c0.239 1.489 0.382 2.993 0.428 4.5 0 0.276 0.224 0.5 0.5 0.5s0.5-0.224 0.5-0.5c-0.042-1.507-0.18-3.010-0.416-4.5h0.275c0.237 0.104 0.469 0.223 0.692 0.356 0.232 1.371 0.382 2.755 0.449 4.144 0 0.276 0.224 0.5 0.5 0.5s0.5-0.224 0.5-0.5c-0.039-1.109-0.144-2.215-0.314-3.311 1.845 1.78 2.864 4.249 2.814 6.811 0 3.173-1.444 6.059-3.768 7.534v0.002zM23.945 17.077c0.211 0.248 0.45 0.469 0.714 0.66-0.308 0.109-0.602 0.255-0.874 0.436 0.071-0.359 0.125-0.724 0.16-1.096zM26 24.5c-1.657 0-3-1.343-3-3s1.343-3 3-3c1.657 0 3 1.343 3 3-0.002 1.656-1.344 2.998-3 3z"></path>
<path d="M26 19.5c-1.105 0-2 0.896-2 2s0.895 2 2 2c1.104 0 2-0.895 2-2s-0.895-2-2-2zM26 22.5c-0.552 0-1-0.448-1-1s0.448-1 1-1c0.552 0 1 0.448 1 1s-0.448 1-1 1z"></path>
<path d="M14.854 15.147c-0.195-0.195-0.512-0.195-0.707 0-0.36 0.39-0.866 0.613-1.397 0.613s-1.038-0.222-1.397-0.613c-0.196-0.189-0.508-0.186-0.701 0.008s-0.194 0.505-0.004 0.701c0.577 0.572 1.35 0.904 2.163 0.928 0.78-0.016 1.519-0.352 2.044-0.928 0.094-0.094 0.147-0.221 0.147-0.354s-0.053-0.261-0.147-0.354z"></path>
<path d="M21.354 15.147c-0.195-0.195-0.512-0.195-0.707 0-0.36 0.39-0.866 0.613-1.397 0.613s-1.038-0.222-1.397-0.613c-0.196-0.189-0.508-0.186-0.701 0.008s-0.194 0.505-0.004 0.701c0.577 0.572 1.35 0.904 2.163 0.928 0.78-0.016 1.519-0.352 2.044-0.928 0.094-0.094 0.147-0.221 0.147-0.354s-0.053-0.261-0.147-0.354z"></path>
<path d="M17.647 19.647c-1.588 1.587-3.122 0.168-3.294 0-0.196-0.189-0.509-0.186-0.701 0.007s-0.195 0.505-0.005 0.701c0.646 0.641 1.511 1.012 2.42 1.040 0.872-0.019 1.699-0.395 2.287-1.040 0.189-0.196 0.187-0.508-0.006-0.701s-0.505-0.196-0.701-0.006v-0.001z"></path>
</symbol>
<symbol id="icon-youtube" viewBox="0 0 32 32">
<path d="M16 4c0 0 0 0 0 1.333v1.333l-0.101 0c-0.067 0-0.165 0-0.292 0.001-0.253 0.001-0.618 0.004-1.063 0.008-0.89 0.010-2.1 0.029-3.379 0.067-1.281 0.038-2.621 0.095-3.777 0.179-1.184 0.086-2.064 0.195-2.502 0.31-0.398 0.114-0.76 0.331-1.048 0.629-0.282 0.29-0.484 0.647-0.589 1.037-0.399 2.232-0.595 4.495-0.583 6.762l0 0.015c-0.014 2.276 0.18 4.549 0.579 6.79 0.115 0.37 0.32 0.707 0.596 0.98 0.289 0.286 0.647 0.493 1.039 0.601 0.436 0.116 1.319 0.225 2.508 0.312 1.155 0.084 2.496 0.141 3.777 0.179 1.279 0.038 2.489 0.057 3.379 0.067 0.445 0.005 0.81 0.007 1.063 0.008 0.127 0.001 0.225 0.001 0.292 0.001h0.201c0.067-0 0.165-0 0.292-0.001 0.253-0.001 0.618-0.004 1.063-0.008 0.89-0.010 2.1-0.029 3.379-0.067 1.281-0.038 2.621-0.095 3.777-0.179 1.184-0.086 2.064-0.195 2.502-0.31 0.398-0.114 0.76-0.331 1.048-0.629 0.281-0.29 0.484-0.647 0.589-1.037 0.396-2.215 0.592-4.461 0.583-6.71v-0.013c0.014-2.284-0.181-4.565-0.583-6.813-0.105-0.39-0.307-0.747-0.589-1.037-0.285-0.294-0.642-0.509-1.035-0.625-0.453-0.107-1.336-0.205-2.508-0.283-1.158-0.077-2.5-0.129-3.782-0.164-1.28-0.035-2.49-0.052-3.381-0.061-0.445-0.004-0.81-0.007-1.063-0.008l-0.393-0.001v-1.333c0-1.333-0-1.333-0-1.333l0.106 0c0.069 0 0.169 0 0.298 0.001 0.257 0.001 0.627 0.003 1.078 0.008 0.901 0.009 2.127 0.026 3.427 0.062 1.298 0.035 2.679 0.088 3.887 0.169 1.173 0.078 2.286 0.188 2.987 0.359 0.016 0.004 0.031 0.008 0.047 0.012 0.853 0.241 1.628 0.704 2.246 1.34s1.056 1.425 1.271 2.285c0.007 0.029 0.013 0.058 0.019 0.087 0.437 2.424 0.65 4.882 0.635 7.345 0.008 2.426-0.204 4.847-0.635 7.235-0.005 0.029-0.011 0.058-0.019 0.087-0.215 0.86-0.654 1.649-1.271 2.285s-1.392 1.099-2.246 1.34l-0.018 0.005c-0.712 0.19-1.834 0.311-3.007 0.396-1.21 0.088-2.593 0.146-3.892 0.185-1.301 0.039-2.528 0.058-3.429 0.068-0.451 0.005-0.821 0.007-1.079 0.008-0.129 0.001-0.23 0.001-0.298 0.001l-0.106 0-0.107-0c-0.069-0-0.17-0.001-0.298-0.001-0.258-0.001-0.628-0.004-1.079-0.008-0.901-0.010-2.128-0.029-3.429-0.068-1.299-0.039-2.682-0.097-3.892-0.185-1.172-0.085-2.295-0.206-3.007-0.396l-0.007-0.002c-0.836-0.229-1.599-0.669-2.215-1.279s-1.065-1.368-1.302-2.202c-0.012-0.042-0.022-0.085-0.030-0.129-0.437-2.423-0.65-4.882-0.635-7.344-0.012-2.444 0.201-4.884 0.635-7.289 0.005-0.029 0.012-0.058 0.019-0.087 0.215-0.86 0.654-1.649 1.272-2.285s1.392-1.099 2.246-1.341l0.019-0.005c0.712-0.19 1.834-0.311 3.007-0.396 1.21-0.088 2.593-0.146 3.892-0.185 1.301-0.039 2.528-0.058 3.429-0.068 0.451-0.005 0.821-0.007 1.079-0.008 0.129-0.001 0.23-0.001 0.298-0.001l0.106-0z"></path>
<path d="M12.33 10.154c0.41-0.239 0.917-0.241 1.329-0.007l7.667 4.36c0.417 0.237 0.674 0.68 0.674 1.159s-0.257 0.922-0.674 1.159l-7.667 4.36c-0.413 0.235-0.919 0.232-1.329-0.006s-0.663-0.678-0.663-1.153v-8.72c0-0.475 0.252-0.914 0.663-1.153zM14.333 13.599v4.136l3.636-2.068-3.636-2.068z"></path>
</symbol>
<symbol id="icon-phone" viewBox="0 0 32 32">
<path d="M22 20c-2 2-2 4-4 4s-4-2-6-4-4-4-4-6 2-2 4-4-4-8-6-8-6 6-6 6c0 4 4.109 12.109 8 16s12 8 16 8c0 0 6-4 6-6s-6-8-8-6z"></path>
</symbol>
<symbol id="icon-menu" viewBox="0 0 32 32">
<path d="M2 6h28v6h-28zM2 14h28v6h-28zM2 22h28v6h-28z"></path>
</symbol>
<symbol id="icon-home" viewBox="0 0 32 32">
<path d="M32 18.451l-16-12.42-16 12.42v-5.064l16-12.42 16 12.42zM28 18v12h-8v-8h-8v8h-8v-12l12-9z"></path>
</symbol>
<symbol id="icon-newspaper" viewBox="0 0 32 32">
<path d="M28 8v-4h-28v22c0 1.105 0.895 2 2 2h27c1.657 0 3-1.343 3-3v-17h-4zM26 26h-24v-20h24v20zM4 10h20v2h-20zM16 14h8v2h-8zM16 18h8v2h-8zM16 22h6v2h-6zM4 14h10v10h-10z"></path>
</symbol>
<symbol id="icon-book" viewBox="0 0 32 32">
<path d="M28 4v26h-21c-1.657 0-3-1.343-3-3s1.343-3 3-3h19v-24h-20c-2.2 0-4 1.8-4 4v24c0 2.2 1.8 4 4 4h24v-28h-2z"></path>
<path d="M7.002 26v0c-0.001 0-0.001 0-0.002 0-0.552 0-1 0.448-1 1s0.448 1 1 1c0.001 0 0.001-0 0.002-0v0h18.997v-2h-18.997z"></path>
</symbol>
<symbol id="icon-folder-open" viewBox="0 0 32 32">
<path d="M26 30l6-16h-26l-6 16zM4 12l-4 18v-26h9l4 4h13v4z"></path>
</symbol>
<symbol id="icon-cart" viewBox="0 0 32 32">
<path d="M12 29c0 1.657-1.343 3-3 3s-3-1.343-3-3c0-1.657 1.343-3 3-3s3 1.343 3 3z"></path>
<path d="M32 29c0 1.657-1.343 3-3 3s-3-1.343-3-3c0-1.657 1.343-3 3-3s3 1.343 3 3z"></path>
<path d="M32 16v-12h-24c0-1.105-0.895-2-2-2h-6v2h4l1.502 12.877c-0.915 0.733-1.502 1.859-1.502 3.123 0 2.209 1.791 4 4 4h24v-2h-24c-1.105 0-2-0.895-2-2 0-0.007 0-0.014 0-0.020l26-3.98z"></path>
</symbol>
<symbol id="icon-calculator" viewBox="0 0 32 32">
<path d="M12 2h-10c-1.1 0-2 0.9-2 2v10c0 1.1 0.9 2 2 2h10c1.1 0 2-0.9 2-2v-10c0-1.1-0.9-2-2-2zM12 10h-10v-2h10v2zM28 2h-10c-1.1 0-2 0.9-2 2v26c0 1.1 0.9 2 2 2h10c1.1 0 2-0.9 2-2v-26c0-1.1-0.9-2-2-2zM28 20h-10v-2h10v2zM28 14h-10v-2h10v2zM12 18h-10c-1.1 0-2 0.9-2 2v10c0 1.1 0.9 2 2 2h10c1.1 0 2-0.9 2-2v-10c0-1.1-0.9-2-2-2zM12 26h-4v4h-2v-4h-4v-2h4v-4h2v4h4v2z"></path>
</symbol>
<symbol id="icon-mobile" viewBox="0 0 32 32">
<path d="M23 0h-14c-1.65 0-3 1.35-3 3v26c0 1.65 1.35 3 3 3h14c1.65 0 3-1.35 3-3v-26c0-1.65-1.35-3-3-3zM12 1.5h8v1h-8v-1zM16 30c-1.105 0-2-0.895-2-2s0.895-2 2-2 2 0.895 2 2-0.895 2-2 2zM24 24h-16v-20h16v20z"></path>
</symbol>
<symbol id="icon-bubbles" viewBox="0 0 36 32">
<path d="M34 28.161c0 1.422 0.813 2.653 2 3.256v0.498c-0.332 0.045-0.671 0.070-1.016 0.070-2.125 0-4.042-0.892-5.398-2.321-0.819 0.218-1.688 0.336-2.587 0.336-4.971 0-9-3.582-9-8s4.029-8 9-8c4.971 0 9 3.582 9 8 0 1.73-0.618 3.331-1.667 4.64-0.213 0.463-0.333 0.979-0.333 1.522zM16 0c8.702 0 15.781 5.644 15.995 12.672-1.537-0.685-3.237-1.047-4.995-1.047-2.986 0-5.807 1.045-7.942 2.943-2.214 1.968-3.433 4.607-3.433 7.432 0 1.396 0.298 2.747 0.867 3.993-0.163 0.004-0.327 0.007-0.492 0.007-0.849 0-1.682-0.054-2.495-0.158-3.437 3.437-7.539 4.053-11.505 4.144v-0.841c2.142-1.049 4-2.961 4-5.145 0-0.305-0.024-0.604-0.068-0.897-3.619-2.383-5.932-6.024-5.932-10.103 0-7.18 7.163-13 16-13z"></path>
</symbol>
<symbol id="icon-users" viewBox="0 0 36 32">
<path d="M24 24.082v-1.649c2.203-1.241 4-4.337 4-7.432 0-4.971 0-9-6-9s-6 4.029-6 9c0 3.096 1.797 6.191 4 7.432v1.649c-6.784 0.555-12 3.888-12 7.918h28c0-4.030-5.216-7.364-12-7.918z"></path>
<path d="M10.225 24.854c1.728-1.13 3.877-1.989 6.243-2.513-0.47-0.556-0.897-1.176-1.265-1.844-0.95-1.726-1.453-3.627-1.453-5.497 0-2.689 0-5.228 0.956-7.305 0.928-2.016 2.598-3.265 4.976-3.734-0.529-2.39-1.936-3.961-5.682-3.961-6 0-6 4.029-6 9 0 3.096 1.797 6.191 4 7.432v1.649c-6.784 0.555-12 3.888-12 7.918h8.719c0.454-0.403 0.956-0.787 1.506-1.146z"></path>
</symbol>
<symbol id="icon-stats-bars" viewBox="0 0 32 32">
<path d="M0 26h32v4h-32zM4 18h4v6h-4zM10 10h4v14h-4zM16 16h4v8h-4zM22 4h4v20h-4z"></path>
</symbol>
<symbol id="icon-gift" viewBox="0 0 32 32">
<path d="M24.11 10c0.566-0.402 1.11-0.851 1.608-1.348 1.044-1.044 1.742-2.328 1.966-3.616 0.246-1.412-0.115-2.723-0.988-3.597-0.697-0.697-1.641-1.065-2.73-1.065-1.551 0-3.185 0.744-4.483 2.043-2.077 2.077-3.288 4.945-3.94 6.991-0.482-2.056-1.444-4.833-3.313-6.702-1.003-1.003-2.285-1.518-3.495-1.518-0.989 0-1.931 0.344-2.633 1.046-1.562 1.562-1.351 4.306 0.471 6.128 0.65 0.65 1.409 1.189 2.21 1.638h-6.782v8h2v14h24v-14h2v-8h-5.89zM21.073 4.007c0.866-0.866 1.948-1.384 2.892-1.384 0.334 0 0.803 0.070 1.139 0.406 0.813 0.813 0.357 2.697-0.977 4.031-1.373 1.373-3.221 2.318-4.826 2.939h-1.584c0.58-1.798 1.627-4.264 3.356-5.993zM7.31 5.028c-0.022-0.285-0.002-0.82 0.381-1.203 0.32-0.32 0.743-0.387 1.042-0.387v0c0.664 0 1.358 0.313 1.904 0.859 1.059 1.058 1.93 2.743 2.521 4.871 0.016 0.057 0.031 0.115 0.047 0.171-0.057-0.015-0.114-0.031-0.171-0.047-2.128-0.591-3.813-1.462-4.871-2.521-0.495-0.495-0.805-1.13-0.853-1.743zM14 30h-8v-13h8v13zM14 16h-10v-4h10v4zM26 30h-8v-13h8v13zM28 16h-10v-4h10v4z"></path>
</symbol>
<symbol id="icon-earth" viewBox="0 0 32 32">
<path d="M16 0c-8.837 0-16 7.163-16 16s7.163 16 16 16 16-7.163 16-16-7.163-16-16-16zM16 30c-1.967 0-3.84-0.407-5.538-1.139l7.286-8.197c0.163-0.183 0.253-0.419 0.253-0.664v-3c0-0.552-0.448-1-1-1-3.531 0-7.256-3.671-7.293-3.707-0.188-0.188-0.442-0.293-0.707-0.293h-4c-0.552 0-1 0.448-1 1v6c0 0.379 0.214 0.725 0.553 0.894l3.447 1.724v5.871c-3.627-2.53-6-6.732-6-11.489 0-2.147 0.484-4.181 1.348-6h3.652c0.265 0 0.52-0.105 0.707-0.293l4-4c0.188-0.188 0.293-0.442 0.293-0.707v-2.419c1.268-0.377 2.61-0.581 4-0.581 2.2 0 4.281 0.508 6.134 1.412-0.13 0.109-0.256 0.224-0.376 0.345-1.133 1.133-1.757 2.64-1.757 4.243s0.624 3.109 1.757 4.243c1.139 1.139 2.663 1.758 4.239 1.758 0.099 0 0.198-0.002 0.297-0.007 0.432 1.619 1.211 5.833-0.263 11.635-0.014 0.055-0.022 0.109-0.026 0.163-2.541 2.596-6.084 4.208-10.004 4.208z"></path>
</symbol>
<symbol id="icon-bookmarks" viewBox="0 0 32 32">
<path d="M8 4v28l10-10 10 10v-28zM24 0h-20v28l2-2v-24h18z"></path>
</symbol>
<symbol id="icon-plus" viewBox="0 0 32 32">
<path d="M31 12h-11v-11c0-0.552-0.448-1-1-1h-6c-0.552 0-1 0.448-1 1v11h-11c-0.552 0-1 0.448-1 1v6c0 0.552 0.448 1 1 1h11v11c0 0.552 0.448 1 1 1h6c0.552 0 1-0.448 1-1v-11h11c0.552 0 1-0.448 1-1v-6c0-0.552-0.448-1-1-1z"></path>
</symbol>
<symbol id="icon-minus" viewBox="0 0 32 32">
<path d="M0 13v6c0 0.552 0.448 1 1 1h30c0.552 0 1-0.448 1-1v-6c0-0.552-0.448-1-1-1h-30c-0.552 0-1 0.448-1 1z"></path>
</symbol>
<symbol id="icon-arrow-up" viewBox="0 0 32 32">
<path d="M16 1l-15 15h9v16h12v-16h9z"></path>
</symbol>
<symbol id="icon-arrow-down" viewBox="0 0 32 32">
<path d="M16 31l15-15h-9v-16h-12v16h-9z"></path>
</symbol>
<symbol id="icon-steam2" viewBox="0 0 32 32">
<path d="M9.498 26.125c0.848 0 1.681-0.41 2.187-1.169 0.804-1.206 0.478-2.836-0.728-3.64l-2.065-1.377c0.353-0.096 0.725-0.149 1.109-0.149 2.325 0 4.209 1.884 4.209 4.209s-1.885 4.209-4.209 4.209c-2.263 0-4.108-1.785-4.205-4.024l2.249 1.499c0.448 0.298 0.953 0.441 1.454 0.441zM26.667 0c2.934 0 5.333 2.4 5.333 5.334v21.332c0 2.936-2.399 5.334-5.333 5.334h-21.333c-2.934 0-5.334-2.398-5.334-5.334v-6.345l3.792 2.528c-0.364 1.974 0.217 4.088 1.744 5.615 2.466 2.466 6.463 2.466 8.929 0 1.515-1.515 2.098-3.607 1.752-5.568l7.783-6.968c1.445-0.207 2.838-0.867 3.95-1.979 2.734-2.734 2.734-7.166 0-9.899s-7.166-2.734-9.9 0c-1.112 1.112-1.771 2.505-1.979 3.95v0l-6.397 9.695c-0.995 0.051-1.981 0.336-2.866 0.856l-6.808-4.539v-8.678c0-2.934 2.4-5.334 5.334-5.334h21.333zM28 9c0-2.761-2.239-5-5-5s-5 2.239-5 5 2.239 5 5 5 5-2.239 5-5zM20 9c0-1.657 1.343-3 3-3s3 1.343 3 3-1.343 3-3 3-3-1.343-3-3z"></path>
</symbol>
</defs>
</svg>
